<svg width="60.000000" height="60.000000" viewBox="0 0 60 60" fill="none" xmlns="http://www.w3.org/2000/svg" xmlns:xlink="http://www.w3.org/1999/xlink">
	<desc>
			Created with Pixso.
	</desc>
	<defs/>
	<path id="Vector" d="M54.04 5.95C50.18 2.12 45.09 0 39.65 0C34.21 0 29.13 2.12 25.26 5.95C22.27 8.94 20.31 12.74 19.6 16.83C19.53 17.25 19.47 17.67 19.44 18.09C19.4 18.5 19.37 18.92 19.34 19.34C19.31 19.66 19.31 20.02 19.31 20.34L19.31 23.11L19.31 24.36L19.31 25.62L19.31 40.71L34.4 40.71L35.66 40.71L36.92 40.71C36.95 40.36 36.95 40.04 36.95 39.68L36.95 36.95L35.69 36.95L23.07 36.95L23.07 25.59L23.07 23.11L23.07 20.37C23.07 20.02 23.07 19.69 23.11 19.34C23.14 18.92 23.17 18.5 23.24 18.09C23.3 17.67 23.36 17.25 23.46 16.83C24.14 13.68 25.75 10.84 27.93 8.62C30.93 5.63 35.08 3.76 39.65 3.76C48.79 3.76 56.23 11.2 56.23 20.34C56.23 24.91 54.36 29.06 51.37 32.06C49.15 34.28 46.31 35.85 43.16 36.53L43.16 36.88L43.16 39.65C43.16 39.91 43.16 40.13 43.16 40.39C47.25 39.68 51.05 37.72 54.04 34.73C57.87 30.9 60 25.78 60 20.34C60 14.9 57.87 9.78 54.04 5.95Z" fill="#F7654A" fill-opacity="1.000000" fill-rule="nonzero"/>
	<path id="Vector" d="M23.07 22.76L24.33 22.76L25.59 22.76L36.95 22.76L36.95 34.12L36.95 35.38L36.95 36.63L36.95 39.37C36.95 39.72 36.95 40.05 36.92 40.4C36.88 40.82 36.85 41.24 36.79 41.66C36.72 42.07 36.66 42.49 36.56 42.91C35.89 46.07 34.28 48.9 32.09 51.12C29.09 54.11 24.94 55.98 20.37 55.98C11.23 55.98 3.79 48.54 3.79 39.4C3.79 34.83 5.66 30.68 8.65 27.69C10.87 25.47 13.71 23.89 16.86 23.21L16.86 20.09C16.86 19.83 16.86 19.61 16.86 19.35C12.77 20.06 8.98 22.02 5.98 25.01C2.12 28.78 0 33.9 0 39.34C0 44.78 2.12 49.86 5.95 53.73C9.78 57.56 14.9 59.68 20.34 59.68C25.78 59.68 30.86 57.56 34.73 53.73C38.33 50.12 40.42 45.39 40.65 40.34C40.65 40.18 40.65 40.01 40.68 39.85C40.68 39.76 40.68 39.69 40.68 39.6C40.68 39.5 40.68 39.43 40.68 39.34L40.68 36.57L40.68 19L25.59 19L24.33 19L23.07 19C23.04 19.35 23.04 19.67 23.04 20.03L23.07 22.76Z" fill="#F7654A" fill-opacity="1.000000" fill-rule="nonzero"/>
</svg>
