<svg width="33.000000" height="28.000000" viewBox="0 0 33 28" fill="none" xmlns="http://www.w3.org/2000/svg" xmlns:xlink="http://www.w3.org/1999/xlink">
	<desc>
			Created with Pixso.
	</desc>
	<defs/>
	<path id="“" d="M-0.8 21.56L-0.8 27.12L13.03 27.12L13.03 13.4L6.31 13.4C6.31 10.9 6.66 8.85 7.36 7.25C8.07 5.65 9.67 4.82 12.16 4.75L11.01 -0.14C6.6 -0.14 3.59 1.27 1.99 4.08C0.45 6.84 -0.41 10.96 -0.61 16.47C-0.67 18 -0.73 19.7 -0.8 21.56ZM18.88 21.56L18.88 27.12L32.71 27.12L32.71 13.4L25.99 13.4C25.99 10.9 26.34 8.85 27.04 7.25C27.75 5.65 29.35 4.82 31.84 4.75L30.69 -0.14C26.28 -0.14 23.27 1.27 21.67 4.08C20.13 6.84 19.27 10.96 19.08 16.47C19.01 18 18.95 19.7 18.88 21.56Z" fill="#F7654A" fill-opacity="1.000000" fill-rule="evenodd"/>
</svg>
